REM DIRINDEX 1\2,1\3,1\4,1\5
REM DIRNAME folder01,folder02,folder03,folder04,folder05
TITLE ""
FILE "144.mp3" MP3
  TRACK 01 AUDIO
    TITLE "0:"
    INDEX 01 00:00:00
  TRACK 02 AUDIO
    TITLE "2:cjc046_3889"
    INDEX 01 00:00:13
  TRACK 03 AUDIO
    TITLE "0:"
    INDEX 01 00:01:15
  TRACK 04 AUDIO
    TITLE "3:cjc046_3890"
    INDEX 01 00:01:36
  TRACK 05 AUDIO
    TITLE "0:"
    INDEX 01 00:03:10
  TRACK 06 AUDIO
    TITLE "4:cjc046_3891"
    INDEX 01 00:03:27
  TRACK 07 AUDIO
    TITLE "0:"
    INDEX 01 00:04:29
  TRACK 08 AUDIO
    TITLE "2:cjc046_3892"
    INDEX 01 00:05:40
  TRACK 09 AUDIO
    TITLE "0:"
    INDEX 01 00:06:39
  TRACK 10 AUDIO
    TITLE "3:cjc046_3893"
    INDEX 01 00:06:59
  TRACK 11 AUDIO
    TITLE "0:"
    INDEX 01 00:07:70
  TRACK 12 AUDIO
    TITLE "4:cjc046_3894"
    INDEX 01 00:08:07
  TRACK 13 AUDIO
    TITLE "0:"
    INDEX 01 00:09:06
  TRACK 14 AUDIO
    TITLE "2:cjc046_3895"
    INDEX 01 00:10:16
  TRACK 15 AUDIO
    TITLE "0:"
    INDEX 01 00:11:25
  TRACK 16 AUDIO
    TITLE "3:cjc046_3896"
    INDEX 01 00:11:40
  TRACK 17 AUDIO
    TITLE "0:"
    INDEX 01 00:13:12
  TRACK 18 AUDIO
    TITLE "4:cjc046_3897"
    INDEX 01 00:13:30
  TRACK 19 AUDIO
    TITLE "0:"
    INDEX 01 00:14:37
  TRACK 20 AUDIO
    TITLE "2:cjc046_3898"
    INDEX 01 00:15:40
  TRACK 21 AUDIO
    TITLE "0:"
    INDEX 01 00:16:57
  TRACK 22 AUDIO
    TITLE "3:cjc046_3899"
    INDEX 01 00:16:71
  TRACK 23 AUDIO
    TITLE "0:"
    INDEX 01 00:17:69
  TRACK 24 AUDIO
    TITLE "4:cjc046_3900"
    INDEX 01 00:18:05
  TRACK 25 AUDIO
    TITLE "0:"
    INDEX 01 00:19:22
  TRACK 26 AUDIO
    TITLE "2:cjc046_3901"
    INDEX 01 00:20:28
  TRACK 27 AUDIO
    TITLE "0:"
    INDEX 01 00:21:35
  TRACK 28 AUDIO
    TITLE "3:cjc046_3902"
    INDEX 01 00:21:49
  TRACK 29 AUDIO
    TITLE "0:"
    INDEX 01 00:22:44
  TRACK 30 AUDIO
    TITLE "4:cjc046_3903"
    INDEX 01 00:22:60
  TRACK 31 AUDIO
    TITLE "0:"
    INDEX 01 00:23:67
  TRACK 32 AUDIO
    TITLE "2:cjc046_3904"
    INDEX 01 00:24:69
  TRACK 33 AUDIO
    TITLE "0:"
    INDEX 01 00:26:13
  TRACK 34 AUDIO
    TITLE "3:cjc046_3905"
    INDEX 01 00:26:34
  TRACK 35 AUDIO
    TITLE "0:"
    INDEX 01 00:27:41
  TRACK 36 AUDIO
    TITLE "4:cjc046_3906"
    INDEX 01 00:27:57
  TRACK 37 AUDIO
    TITLE "0:"
    INDEX 01 00:29:03
  TRACK 38 AUDIO
    TITLE "2:cjc046_3907"
    INDEX 01 00:30:10
  TRACK 39 AUDIO
    TITLE "0:"
    INDEX 01 00:31:20
  TRACK 40 AUDIO
    TITLE "3:cjc046_3908"
    INDEX 01 00:31:41
  TRACK 41 AUDIO
    TITLE "0:"
    INDEX 01 00:32:54
  TRACK 42 AUDIO
    TITLE "4:cjc046_3909"
    INDEX 01 00:32:68
  TRACK 43 AUDIO
    TITLE "0:"
    INDEX 01 00:34:04
  TRACK 44 AUDIO
    TITLE "2:cjc046_3910"
    INDEX 01 00:35:12
  TRACK 45 AUDIO
    TITLE "0:"
    INDEX 01 00:36:27
  TRACK 46 AUDIO
    TITLE "3:cjc046_3911"
    INDEX 01 00:36:46
  TRACK 47 AUDIO
    TITLE "0:"
    INDEX 01 00:38:22
  TRACK 48 AUDIO
    TITLE "4:cjc046_3912"
    INDEX 01 00:38:39
  TRACK 49 AUDIO
    TITLE "0:"
    INDEX 01 00:39:56
  TRACK 50 AUDIO
    TITLE "2:cjc046_3913"
    INDEX 01 00:40:64
  TRACK 51 AUDIO
    TITLE "0:"
    INDEX 01 00:41:67
  TRACK 52 AUDIO
    TITLE "3:cjc046_3914"
    INDEX 01 00:42:12
  TRACK 53 AUDIO
    TITLE "0:"
    INDEX 01 00:43:39
  TRACK 54 AUDIO
    TITLE "4:cjc046_3915"
    INDEX 01 00:43:58
  TRACK 55 AUDIO
    TITLE "0:"
    INDEX 01 00:44:63
  TRACK 56 AUDIO
    TITLE "2:cjc046_3916"
    INDEX 01 00:45:71
  TRACK 57 AUDIO
    TITLE "0:"
    INDEX 01 00:47:15
  TRACK 58 AUDIO
    TITLE "3:cjc046_3917"
    INDEX 01 00:47:36
  TRACK 59 AUDIO
    TITLE "0:"
    INDEX 01 00:49:06
  TRACK 60 AUDIO
    TITLE "4:cjc046_3918"
    INDEX 01 00:49:20
  TRACK 61 AUDIO
    TITLE "0:"
    INDEX 01 00:50:41
  TRACK 62 AUDIO
    TITLE "2:cjc046_3919"
    INDEX 01 00:51:42
  TRACK 63 AUDIO
    TITLE "0:"
    INDEX 01 00:52:55
  TRACK 64 AUDIO
    TITLE "3:cjc046_3920"
    INDEX 01 00:53:02
  TRACK 65 AUDIO
    TITLE "0:"
    INDEX 01 00:54:21
  TRACK 66 AUDIO
    TITLE "4:cjc046_3921"
    INDEX 01 00:54:30
  TRACK 67 AUDIO
    TITLE "0:"
    INDEX 01 00:55:42
  TRACK 68 AUDIO
    TITLE "2:cjc046_3922"
    INDEX 01 00:56:53
  TRACK 69 AUDIO
    TITLE "0:"
    INDEX 01 00:57:62
  TRACK 70 AUDIO
    TITLE "3:cjc046_3923"
    INDEX 01 00:58:07
  TRACK 71 AUDIO
    TITLE "0:"
    INDEX 01 00:59:18
  TRACK 72 AUDIO
    TITLE "4:cjc046_3924"
    INDEX 01 00:59:34
  TRACK 73 AUDIO
    TITLE "0:"
    INDEX 01 01:00:39
  TRACK 74 AUDIO
    TITLE "2:cjc046_3925"
    INDEX 01 01:01:48
  TRACK 75 AUDIO
    TITLE "0:"
    INDEX 01 01:02:67
  TRACK 76 AUDIO
    TITLE "3:cjc046_3926"
    INDEX 01 01:03:12
  TRACK 77 AUDIO
    TITLE "0:"
    INDEX 01 01:04:03
  TRACK 78 AUDIO
    TITLE "4:cjc046_3927"
    INDEX 01 01:04:05
  TRACK 79 AUDIO
    TITLE "0:"
    INDEX 01 01:05:24
  TRACK 80 AUDIO
    TITLE "2:cjc046_3928"
    INDEX 01 01:06:32
  TRACK 81 AUDIO
    TITLE "0:"
    INDEX 01 01:07:45
  TRACK 82 AUDIO
    TITLE "3:cjc046_3929"
    INDEX 01 01:07:66
  TRACK 83 AUDIO
    TITLE "0:"
    INDEX 01 01:09:14
  TRACK 84 AUDIO
    TITLE "4:cjc046_3930"
    INDEX 01 01:09:36
  TRACK 85 AUDIO
    TITLE "0:"
    INDEX 01 01:10:51
